<?xml version="1.0" encoding="UTF-8" standalone="no"?>
<svg
   xmlns:dc="http://purl.org/dc/elements/1.1/"
   xmlns:cc="http://creativecommons.org/ns#"
   xmlns:rdf="http://www.w3.org/1999/02/22-rdf-syntax-ns#"
   xmlns:svg="http://www.w3.org/2000/svg"
   xmlns="http://www.w3.org/2000/svg"
   xmlns:sodipodi="http://sodipodi.sourceforge.net/DTD/sodipodi-0.dtd"
   xmlns:inkscape="http://www.inkscape.org/namespaces/inkscape"
   width="175"
   height="94"
   viewBox="0 0 46.302081 24.870835"
   version="1.1"
   id="svg8"
   inkscape:version="1.0.1 (c497b03c, 2020-09-10)"
   sodipodi:docname="logo.svg">
  <defs
     id="defs2">
    <rect
       x="33.866669"
       y="46.566666"
       width="48.683334"
       height="16.668751"
       id="rect843" />
    <rect
       x="34.924999"
       y="27.516666"
       width="55.5625"
       height="11.90625"
       id="rect837" />
  </defs>
  <sodipodi:namedview
     id="base"
     pagecolor="#ffffff"
     bordercolor="#666666"
     borderopacity="1.0"
     inkscape:pageopacity="0.0"
     inkscape:pageshadow="2"
     inkscape:zoom="2.16"
     inkscape:cx="64.876589"
     inkscape:cy="14.000002"
     inkscape:document-units="mm"
     inkscape:current-layer="g859"
     inkscape:document-rotation="0"
     showgrid="false"
     inkscape:window-width="1481"
     inkscape:window-height="1174"
     inkscape:window-x="2106"
     inkscape:window-y="62"
     inkscape:window-maximized="0"
     fit-margin-top="0"
     fit-margin-left="0"
     fit-margin-right="0"
     fit-margin-bottom="0"
     units="px" />
  <metadata
     id="metadata5">
    <rdf:RDF>
      <cc:Work
         rdf:about="">
        <dc:format>image/svg+xml</dc:format>
        <dc:type
           rdf:resource="http://purl.org/dc/dcmitype/StillImage" />
        <dc:title></dc:title>
      </cc:Work>
    </rdf:RDF>
  </metadata>
  <g
     inkscape:label="Layer 1"
     inkscape:groupmode="layer"
     id="layer1"
     transform="translate(-23.169939,-23.472322)">
    <g
       id="g859"
       inkscape:export-xdpi="49.283863"
       inkscape:export-ydpi="49.283863"
       transform="matrix(0.56068298,0,0,0.5591027,10.443532,10.613466)">
      <rect
         style="fill:#00006c;fill-opacity:1;stroke:#d40000;stroke-width:0;stroke-miterlimit:4;stroke-dasharray:none"
         id="rect10"
         width="81.90744"
         height="43.807442"
         x="23.169939"
         y="23.472322"
         ry="5.2916665" />
      <g
         aria-label="SOCTOR"
         transform="translate(4.5508043,-0.93338409)"
         id="text835"
         style="font-style:normal;font-variant:normal;font-weight:bold;font-stretch:normal;font-size:10.5833px;line-height:1.25;font-family:sans-serif;-inkscape-font-specification:'sans-serif, Bold';font-variant-ligatures:normal;font-variant-caps:normal;font-variant-numeric:normal;font-variant-east-asian:normal;white-space:pre;shape-inside:url(#rect837);fill:#ffffff;fill-opacity:1;stroke:none">
        <path
           d="m 41.266459,29.40893 v 1.63297 q -0.635618,-0.28422 -1.24023,-0.428913 -0.604612,-0.144694 -1.142046,-0.144694 -0.713132,0 -1.054196,0.19637 -0.341063,0.19637 -0.341063,0.60978 0,0.310057 0.227376,0.485757 0.232543,0.170531 0.837155,0.294554 l 0.847491,0.170532 q 1.286739,0.258381 1.82934,0.785479 0.542601,0.527098 0.542601,1.498612 0,1.276404 -0.759641,1.901687 -0.754474,0.620115 -2.30993,0.620115 -0.733803,0 -1.472773,-0.139526 -0.738971,-0.139526 -1.477941,-0.41341 v -1.679479 q 0.73897,0.39274 1.426265,0.594277 0.692462,0.19637 1.333247,0.19637 0.651121,0 0.997352,-0.21704 0.346231,-0.217041 0.346231,-0.620115 0,-0.361734 -0.237711,-0.558104 -0.232543,-0.19637 -0.93534,-0.351399 L 37.91267,33.672222 q -1.157549,-0.248046 -1.694982,-0.790647 -0.532266,-0.542601 -0.532266,-1.462439 0,-1.15238 0.744139,-1.772496 0.744138,-0.620115 2.139397,-0.620115 0.635618,0 1.30741,0.09819 0.671791,0.09302 1.390091,0.28422 z"
           style="font-style:normal;font-variant:normal;font-weight:bold;font-stretch:normal;font-size:10.5833px;font-family:sans-serif;-inkscape-font-specification:'sans-serif, Bold';font-variant-ligatures:normal;font-variant-caps:normal;font-variant-numeric:normal;font-variant-east-asian:normal;fill:#ffffff"
           id="path866" />
        <path
           d="m 47.049034,30.468293 q -0.909503,0 -1.410762,0.671791 -0.50126,0.671792 -0.50126,1.891352 0,1.214392 0.50126,1.886184 0.501259,0.671791 1.410762,0.671791 0.91467,0 1.415929,-0.671791 0.50126,-0.671792 0.50126,-1.886184 0,-1.21956 -0.50126,-1.891352 -0.501259,-0.671791 -1.415929,-0.671791 z m 0,-1.441768 q 1.860345,0 2.914541,1.064531 1.054196,1.064531 1.054196,2.94038 0,1.870681 -1.054196,2.935212 -1.054196,1.064531 -2.914541,1.064531 -1.855178,0 -2.914542,-1.064531 -1.054196,-1.064531 -1.054196,-2.935212 0,-1.875849 1.054196,-2.94038 1.059364,-1.064531 2.914542,-1.064531 z"
           style="font-style:normal;font-variant:normal;font-weight:bold;font-stretch:normal;font-size:10.5833px;font-family:sans-serif;-inkscape-font-specification:'sans-serif, Bold';font-variant-ligatures:normal;font-variant-caps:normal;font-variant-numeric:normal;font-variant-east-asian:normal;fill:#ffffff"
           id="path868" />
        <path
           d="m 58.634852,36.457572 q -0.547768,0.28422 -1.142045,0.428913 -0.594277,0.144694 -1.240231,0.144694 -1.927524,0 -3.054067,-1.074866 -1.126543,-1.080034 -1.126543,-2.924877 0,-1.85001 1.126543,-2.924877 1.126543,-1.080034 3.054067,-1.080034 0.645954,0 1.240231,0.144694 0.594277,0.144693 1.142045,0.428913 v 1.596796 q -0.552936,-0.377236 -1.090369,-0.552936 -0.537433,-0.175699 -1.13171,-0.175699 -1.064531,0 -1.674311,0.682127 -0.60978,0.682126 -0.60978,1.881016 0,1.193722 0.60978,1.875848 0.60978,0.682127 1.674311,0.682127 0.594277,0 1.13171,-0.175699 0.537433,-0.175699 1.090369,-0.552936 z"
           style="font-style:normal;font-variant:normal;font-weight:bold;font-stretch:normal;font-size:10.5833px;font-family:sans-serif;-inkscape-font-specification:'sans-serif, Bold';font-variant-ligatures:normal;font-variant-caps:normal;font-variant-numeric:normal;font-variant-east-asian:normal;fill:#ffffff"
           id="path870" />
        <path
           d="m 59.368655,29.166051 h 7.110654 v 1.503779 h -2.557975 v 6.211488 H 61.931798 V 30.66983 h -2.563143 z"
           style="font-style:normal;font-variant:normal;font-weight:bold;font-stretch:normal;font-size:10.5833px;font-family:sans-serif;-inkscape-font-specification:'sans-serif, Bold';font-variant-ligatures:normal;font-variant-caps:normal;font-variant-numeric:normal;font-variant-east-asian:normal;fill:#ffffff"
           id="path872" />
        <path
           d="m 71.026822,30.468293 q -0.909502,0 -1.410762,0.671791 -0.50126,0.671792 -0.50126,1.891352 0,1.214392 0.50126,1.886184 0.50126,0.671791 1.410762,0.671791 0.91467,0 1.41593,-0.671791 0.50126,-0.671792 0.50126,-1.886184 0,-1.21956 -0.50126,-1.891352 -0.50126,-0.671791 -1.41593,-0.671791 z m 0,-1.441768 q 1.860346,0 2.914542,1.064531 1.054195,1.064531 1.054195,2.94038 0,1.870681 -1.054195,2.935212 -1.054196,1.064531 -2.914542,1.064531 -1.855178,0 -2.914541,-1.064531 -1.054196,-1.064531 -1.054196,-2.935212 0,-1.875849 1.054196,-2.94038 1.059363,-1.064531 2.914541,-1.064531 z"
           style="font-style:normal;font-variant:normal;font-weight:bold;font-stretch:normal;font-size:10.5833px;font-family:sans-serif;-inkscape-font-specification:'sans-serif, Bold';font-variant-ligatures:normal;font-variant-caps:normal;font-variant-numeric:normal;font-variant-east-asian:normal;fill:#ffffff"
           id="path874" />
        <path
           d="m 79.320861,32.58702 q 0.625283,0 0.894,-0.232543 0.273884,-0.232543 0.273884,-0.764809 0,-0.527098 -0.273884,-0.754473 -0.268717,-0.227376 -0.894,-0.227376 h -0.837155 v 1.979201 z m -0.837155,1.374589 v 2.919709 h -1.989537 v -7.715267 h 3.038565 q 1.52445,0 2.232415,0.511595 0.713132,0.511595 0.713132,1.617467 0,0.764809 -0.372069,1.255734 -0.366902,0.490924 -1.11104,0.723467 0.408243,0.09302 0.728636,0.423746 0.32556,0.32556 0.656288,0.992184 l 1.080034,2.191074 h -2.118727 l -0.940508,-1.91719 q -0.284219,-0.578774 -0.578774,-0.790647 -0.289387,-0.211872 -0.775144,-0.211872 z"
           style="font-style:normal;font-variant:normal;font-weight:bold;font-stretch:normal;font-size:10.5833px;font-family:sans-serif;-inkscape-font-specification:'sans-serif, Bold';font-variant-ligatures:normal;font-variant-caps:normal;font-variant-numeric:normal;font-variant-east-asian:normal;fill:#ffffff"
           id="path876" />
      </g>
      <g
         aria-label="WHO"
         transform="matrix(2,0,0,3,-31.546513,-104.22783)"
         id="text841"
         style="font-style:normal;font-variant:normal;font-weight:bold;font-stretch:normal;font-size:10.0815px;line-height:1.25;font-family:sans-serif;-inkscape-font-specification:'sans-serif, Bold';font-variant-ligatures:normal;font-variant-caps:normal;font-variant-numeric:normal;font-variant-east-asian:normal;white-space:pre;shape-inside:url(#rect843);fill:#ffffff;fill-opacity:1;stroke:none">
        <path
           d="m 34.167467,48.136718 h 1.816442 l 1.270032,5.341029 1.260188,-5.341029 h 1.826287 l 1.260188,5.341029 1.270033,-5.341029 h 1.801674 l -1.732758,7.349453 h -2.185638 l -1.334026,-5.58716 -1.319259,5.58716 h -2.185638 z"
           style="font-style:normal;font-variant:normal;font-weight:bold;font-stretch:normal;font-size:10.0815px;font-family:sans-serif;-inkscape-font-specification:'sans-serif, Bold';font-variant-ligatures:normal;font-variant-caps:normal;font-variant-numeric:normal;font-variant-east-asian:normal;fill:#ffffff"
           id="path859" />
        <path
           d="m 45.91773,48.136718 h 1.895204 v 2.800964 h 2.796041 v -2.800964 h 1.895204 v 7.349453 H 50.608975 V 52.37016 h -2.796041 v 3.116011 H 45.91773 Z"
           style="font-style:normal;font-variant:normal;font-weight:bold;font-stretch:normal;font-size:10.0815px;font-family:sans-serif;-inkscape-font-specification:'sans-serif, Bold';font-variant-ligatures:normal;font-variant-caps:normal;font-variant-numeric:normal;font-variant-east-asian:normal;fill:#ffffff"
           id="path861" />
        <path
           d="m 57.722143,49.377215 q -0.866379,0 -1.343872,0.639939 -0.477493,0.639939 -0.477493,1.801674 0,1.156813 0.477493,1.796752 0.477493,0.639939 1.343872,0.639939 0.871301,0 1.348794,-0.639939 0.477493,-0.639939 0.477493,-1.796752 0,-1.161735 -0.477493,-1.801674 -0.477493,-0.639939 -1.348794,-0.639939 z m 0,-1.373407 q 1.772138,0 2.77635,1.014057 1.004212,1.014057 1.004212,2.800963 0,1.781984 -1.004212,2.796041 -1.004212,1.014058 -2.77635,1.014058 -1.767216,0 -2.776351,-1.014058 -1.004212,-1.014057 -1.004212,-2.796041 0,-1.786906 1.004212,-2.800963 1.009135,-1.014057 2.776351,-1.014057 z"
           style="font-style:normal;font-variant:normal;font-weight:bold;font-stretch:normal;font-size:10.0815px;font-family:sans-serif;-inkscape-font-specification:'sans-serif, Bold';font-variant-ligatures:normal;font-variant-caps:normal;font-variant-numeric:normal;font-variant-east-asian:normal;fill:#ffffff"
           id="path863" />
      </g>
    </g>
  </g>
</svg>
